<?xml version="1.0" encoding="iso-8859-1"?>
<!-- Uploaded to: SVG Repo, www.svgrepo.com, Generator: SVG Repo Mixer Tools -->
<svg height="800px" width="800px" version="1.1" id="Layer_1" xmlns="http://www.w3.org/2000/svg" xmlns:xlink="http://www.w3.org/1999/xlink" 
	 viewBox="0 0 511.999 511.999" xml:space="preserve">
<path style="fill:#CFDCE5;" d="M252.065,241.292V126.206C252.065,56.624,308.676,0,378.259,0
	c69.595,0,126.206,56.624,126.206,126.206v115.086h-45.963V126.206c0-44.239-35.992-80.243-80.243-80.243
	c-44.239,0-80.231,36.004-80.231,80.243v115.086H252.065z"/>
<path style="fill:#FF6F52;" d="M316.445,240.066H27.047c-10.778,0-19.513,8.737-19.513,19.513v232.905
	c0,10.778,8.737,19.513,19.513,19.513h289.398c10.778,0,19.513-8.737,19.513-19.513V259.581
	C335.958,248.803,327.221,240.066,316.445,240.066z"/>
<path style="fill:#314A5F;" d="M212.108,453.532l-23.863-70.115c16.148-6.532,27.545-22.35,27.545-40.838
	c0-24.326-19.72-44.046-44.045-44.046s-44.045,19.72-44.045,44.046c0,18.488,11.397,34.306,27.545,40.838l-23.862,70.115H212.108z"
	/>
</svg>